<svg xmlns="http://www.w3.org/2000/svg" width="12.886" height="12.489" viewBox="0 0 12.886 12.489">
  <g id="Group_2464" data-name="Group 2464" transform="translate(36.8 42.013) rotate(180)">
    <g id="Group_1524" data-name="Group 1524" transform="translate(23.914 29.524)">
      <g id="arrow-point-to-right" transform="translate(0 0)">
        <path id="Path_1151" data-name="Path 1151" d="M97.395,6.862l5.37,5.37A.875.875,0,1,0,104,11L99.25,6.244,104,1.493A.875.875,0,1,0,102.764.256l-5.37,5.37a.874.874,0,0,0,0,1.237Z" transform="translate(-97.138 0)" fill="#fff"/>
      </g>
    </g>
    <g id="Group_2463" data-name="Group 2463" transform="translate(30.74 29.79) rotate(45)">
      <g id="arrow-point-to-right-2" data-name="arrow-point-to-right" transform="translate(0 0)">
        <path id="Path_1151-2" data-name="Path 1151" d="M1.059,8.717,8.32,1.456A.853.853,0,0,0,7.114.25L0,7.363Z" transform="translate(0 0)" fill="#fff"/>
      </g>
    </g>
  </g>
</svg>
